<?xml version="1.0" encoding="UTF-8" standalone="no"?><!-- Generator: Gravit.io --><svg xmlns="http://www.w3.org/2000/svg" xmlns:xlink="http://www.w3.org/1999/xlink" style="isolation:isolate" viewBox="0 0 901 251" width="901pt" height="251pt"><defs><clipPath id="_clipPath_DBUwI9v6MZqGLKxr4BG5e2fNbZbLdQ91"><rect width="901" height="251"/></clipPath></defs><g clip-path="url(#_clipPath_DBUwI9v6MZqGLKxr4BG5e2fNbZbLdQ91)"><rect x="0" y="0" width="901" height="251" transform="matrix(1,0,0,1,0,0)" fill="none"/><path d=" M 361.44 155.128 C 362.387 155.128 363.269 155.313 364.087 155.683 C 364.905 156.046 365.627 156.53 366.253 157.134 C 366.873 157.739 367.367 158.461 367.737 159.301 C 368.1 160.141 368.281 161.033 368.281 161.98 C 368.281 163.787 367.573 165.423 366.157 166.889 C 356.545 174.559 345.709 178.394 333.649 178.394 C 319.348 178.394 307.157 173.353 297.075 163.271 C 286.993 153.189 281.953 140.998 281.953 126.697 C 281.953 112.439 286.993 100.269 297.075 90.187 C 307.2 80.062 319.391 75 333.649 75 C 345.887 75 356.937 79.031 366.798 87.092 C 368.007 88.252 368.612 89.824 368.612 91.809 C 368.612 92.798 368.438 93.702 368.089 94.52 C 367.748 95.338 367.264 96.06 366.638 96.686 C 366.012 97.312 365.279 97.796 364.439 98.138 C 363.6 98.486 362.707 98.661 361.76 98.661 C 360.081 98.661 358.509 98.013 357.043 96.718 C 353.77 94.136 350.163 92.154 346.221 90.774 C 342.28 89.393 338.089 88.703 333.649 88.703 C 323.141 88.703 314.158 92.432 306.702 99.888 C 299.338 107.252 295.656 116.188 295.656 126.697 C 295.656 137.255 299.338 146.217 306.702 153.581 C 314.115 160.987 323.098 164.69 333.649 164.69 C 342.65 164.69 350.576 161.912 357.427 156.355 C 358.552 155.58 359.889 155.171 361.44 155.128 Z  M 419.226 119.525 C 416.039 119.525 413.065 120.13 410.304 121.339 C 407.551 122.542 405.16 124.168 403.132 126.217 C 401.112 128.259 399.507 130.66 398.319 133.42 C 397.138 136.174 396.547 139.102 396.547 142.204 C 396.547 145.306 397.138 148.237 398.319 150.998 C 399.507 153.751 401.112 156.153 403.132 158.202 C 405.16 160.251 407.551 161.877 410.304 163.079 C 413.065 164.289 416.039 164.893 419.226 164.893 C 422.371 164.893 425.32 164.289 428.074 163.079 C 430.834 161.877 433.239 160.24 435.288 158.17 C 437.33 156.099 438.945 153.698 440.133 150.966 C 441.314 148.227 441.905 145.306 441.905 142.204 C 441.905 139.102 441.314 136.185 440.133 133.453 C 438.945 130.713 437.33 128.312 435.288 126.249 C 433.239 124.178 430.834 122.542 428.074 121.339 C 425.32 120.13 422.371 119.525 419.226 119.525 Z  M 441.905 171.67 L 441.905 170.379 C 438.675 172.962 435.164 174.943 431.371 176.323 C 427.579 177.704 423.531 178.394 419.226 178.394 C 409.23 178.394 400.699 174.861 393.634 167.796 C 386.569 160.731 383.036 152.2 383.036 142.204 C 383.036 132.215 386.569 123.687 393.634 116.622 C 400.699 109.557 409.23 106.025 419.226 106.025 C 429.137 106.025 437.668 109.557 444.819 116.622 C 451.884 123.687 455.416 132.215 455.416 142.204 L 455.416 171.67 C 455.416 173.527 454.758 175.11 453.442 176.419 C 452.126 177.736 450.542 178.394 448.693 178.394 C 446.8 178.394 445.196 177.736 443.879 176.419 C 442.563 175.11 441.905 173.527 441.905 171.67 Z  M 573.241 171.606 C 573.241 173.506 572.583 175.11 571.267 176.419 C 569.958 177.736 568.375 178.394 566.518 178.394 C 564.625 178.394 563.032 177.736 561.737 176.419 C 560.442 175.11 559.794 173.506 559.794 171.606 L 559.794 134.84 C 559.794 132.777 559.396 130.816 558.599 128.959 C 557.802 127.11 556.717 125.484 555.344 124.082 C 553.964 122.681 552.338 121.571 550.467 120.752 C 548.588 119.934 546.571 119.525 544.415 119.525 C 542.309 119.525 540.328 119.934 538.471 120.752 C 536.621 121.571 534.995 122.67 533.594 124.05 C 532.199 125.43 531.1 127.046 530.296 128.895 C 529.499 130.745 529.101 132.727 529.101 134.84 L 529.101 171.606 C 529.101 173.506 528.446 175.11 527.137 176.419 C 525.821 177.736 524.238 178.394 522.388 178.394 C 520.488 178.394 518.884 177.736 517.574 176.419 C 516.258 175.11 515.6 173.506 515.6 171.606 L 515.6 134.84 C 515.6 132.727 515.191 130.745 514.373 128.895 C 513.555 127.046 512.455 125.43 511.075 124.05 C 509.695 122.67 508.08 121.571 506.23 120.752 C 504.38 119.934 502.398 119.525 500.285 119.525 C 498.172 119.525 496.191 119.924 494.341 120.72 C 492.491 121.517 490.865 122.617 489.463 124.018 C 488.062 125.42 486.963 127.046 486.166 128.895 C 485.369 130.745 484.97 132.727 484.97 134.84 L 484.97 171.606 C 484.97 173.506 484.312 175.11 482.996 176.419 C 481.687 177.736 480.104 178.394 478.247 178.394 C 476.354 178.394 474.75 177.736 473.434 176.419 C 472.124 175.11 471.47 173.506 471.47 171.606 L 471.47 112.737 C 471.47 110.888 472.124 109.305 473.434 107.988 C 474.75 106.679 476.333 106.025 478.183 106.025 C 479.691 106.025 481.029 106.444 482.196 107.284 C 483.355 108.123 484.152 109.233 484.586 110.614 C 489.197 107.554 494.43 106.025 500.285 106.025 C 504.597 106.025 508.645 106.875 512.43 108.575 C 516.223 110.276 519.542 112.848 522.388 116.291 C 528.371 109.447 535.714 106.025 544.415 106.025 C 548.336 106.025 552.053 106.789 555.568 108.319 C 559.076 109.849 562.135 111.916 564.746 114.52 C 567.35 117.124 569.417 120.183 570.947 123.698 C 572.477 127.206 573.241 130.92 573.241 134.84 L 573.241 171.606 Z  M 626.345 119.525 C 623.158 119.525 620.184 120.13 617.423 121.339 C 614.669 122.542 612.279 124.168 610.251 126.217 C 608.231 128.259 606.626 130.66 605.438 133.42 C 604.257 136.174 603.666 139.102 603.666 142.204 C 603.666 145.306 604.257 148.237 605.438 150.998 C 606.626 153.751 608.231 156.153 610.251 158.202 C 612.279 160.251 614.669 161.877 617.423 163.079 C 620.184 164.289 623.158 164.893 626.345 164.893 C 629.49 164.893 632.439 164.289 635.192 163.079 C 637.953 161.877 640.358 160.24 642.407 158.17 C 644.449 156.099 646.064 153.698 647.252 150.966 C 648.433 148.227 649.024 145.306 649.024 142.204 C 649.024 139.102 648.433 136.185 647.252 133.453 C 646.064 130.713 644.449 128.312 642.407 126.249 C 640.358 124.178 637.953 122.542 635.192 121.339 C 632.439 120.13 629.49 119.525 626.345 119.525 Z  M 649.024 171.67 L 649.024 170.379 C 645.794 172.962 642.282 174.943 638.49 176.323 C 634.698 177.704 630.65 178.394 626.345 178.394 C 616.349 178.394 607.818 174.861 600.753 167.796 C 593.688 160.731 590.155 152.2 590.155 142.204 C 590.155 132.215 593.688 123.687 600.753 116.622 C 607.818 109.557 616.349 106.025 626.345 106.025 C 636.256 106.025 644.787 109.557 651.937 116.622 C 659.002 123.687 662.535 132.215 662.535 142.204 L 662.535 171.67 C 662.535 173.527 661.877 175.11 660.561 176.419 C 659.244 177.736 657.661 178.394 655.811 178.394 C 653.919 178.394 652.314 177.736 650.998 176.419 C 649.682 175.11 649.024 173.527 649.024 171.67 Z  M 714.384 119.525 C 711.196 119.525 708.222 120.13 705.462 121.339 C 702.708 122.542 700.318 124.168 698.29 126.217 C 696.269 128.259 694.665 130.66 693.477 133.42 C 692.296 136.174 691.705 139.102 691.705 142.204 C 691.705 145.306 692.296 148.237 693.477 150.998 C 694.665 153.751 696.269 156.153 698.29 158.202 C 700.318 160.251 702.708 161.877 705.462 163.079 C 708.222 164.289 711.196 164.893 714.384 164.893 C 717.529 164.893 720.478 164.289 723.231 163.079 C 725.992 161.877 728.397 160.24 730.446 158.17 C 732.488 156.099 734.103 153.698 735.291 150.966 C 736.472 148.227 737.062 145.306 737.062 142.204 C 737.062 139.102 736.472 136.185 735.291 133.453 C 734.103 130.713 732.488 128.312 730.446 126.249 C 728.397 124.178 725.992 122.542 723.231 121.339 C 720.478 120.13 717.529 119.525 714.384 119.525 Z  M 737.062 170.443 C 730.602 175.744 723.043 178.394 714.384 178.394 C 704.387 178.394 695.857 174.861 688.791 167.796 C 681.726 160.731 678.194 152.2 678.194 142.204 C 678.194 132.215 681.726 123.687 688.791 116.622 C 695.857 109.557 704.387 106.025 714.384 106.025 C 724.295 106.025 732.826 109.557 739.976 116.622 C 747.041 123.687 750.574 132.215 750.574 142.204 L 750.574 178.138 C 750.574 181.24 750.097 184.168 749.144 186.921 C 748.197 189.682 746.885 192.215 745.206 194.52 C 743.526 196.825 741.545 198.903 739.261 200.752 C 736.977 202.602 734.512 204.164 731.865 205.438 C 729.211 206.711 726.443 207.689 723.562 208.372 C 720.673 209.063 717.785 209.408 714.896 209.408 C 711.452 209.408 708.073 208.967 704.757 208.084 C 701.442 207.202 698.297 205.9 695.323 204.178 C 692.349 202.456 689.624 200.322 687.148 197.775 C 684.672 195.235 682.573 192.392 680.851 189.248 C 680.161 188.259 679.816 187.053 679.816 185.63 C 679.816 183.694 680.46 182.09 681.748 180.816 C 683.043 179.543 684.658 178.906 686.593 178.906 C 687.888 178.906 688.955 179.208 689.795 179.813 C 690.634 180.418 691.787 181.756 693.252 183.826 C 694.718 185.889 696.009 187.462 697.127 188.543 C 702.043 193.453 707.966 195.907 714.896 195.907 C 721.876 195.907 727.778 193.495 732.601 188.671 C 735.576 185.05 737.062 181.539 737.062 178.138 L 737.062 170.443 Z  M 779.488 112.737 L 779.488 114.039 C 782.718 111.45 786.229 109.465 790.021 108.084 C 793.806 106.711 797.855 106.025 802.166 106.025 C 804.059 106.025 806.094 106.153 808.271 106.409 C 810.448 106.665 812.451 107.127 814.279 107.796 C 816.108 108.465 817.627 109.383 818.837 110.55 C 820.039 111.709 820.64 113.214 820.64 115.064 C 820.64 116.017 820.459 116.903 820.096 117.721 C 819.726 118.54 819.242 119.258 818.644 119.877 C 818.04 120.503 817.328 120.991 816.51 121.339 C 815.692 121.681 814.81 121.852 813.863 121.852 C 813.045 121.852 812.095 121.617 811.014 121.147 C 808.303 120.066 805.354 119.525 802.166 119.525 C 799.022 119.525 796.069 120.119 793.308 121.307 C 790.555 122.488 788.154 124.104 786.104 126.153 C 784.063 128.195 782.447 130.596 781.259 133.356 C 780.078 136.11 779.488 139.059 779.488 142.204 L 779.488 171.67 C 779.488 173.527 778.829 175.11 777.513 176.419 C 776.197 177.736 774.614 178.394 772.764 178.394 C 770.864 178.394 769.26 177.736 767.951 176.419 C 766.635 175.11 765.976 173.527 765.976 171.67 L 765.976 112.737 C 765.976 110.888 766.635 109.305 767.951 107.988 C 769.26 106.679 770.864 106.025 772.764 106.025 C 774.614 106.025 776.197 106.679 777.513 107.988 C 778.829 109.305 779.488 110.888 779.488 112.737 Z  M 894.223 178.394 C 892.281 178.394 890.687 177.746 889.442 176.451 C 888.19 175.164 887.542 173.591 887.5 171.734 C 884.525 174.061 881.381 175.754 878.065 176.814 C 874.75 177.867 871.153 178.394 867.275 178.394 C 862.665 178.394 858.314 177.501 854.223 175.715 C 850.132 173.922 846.557 171.499 843.497 168.447 C 840.438 165.388 838.015 161.809 836.229 157.711 C 834.437 153.62 833.54 149.269 833.54 144.658 L 833.54 112.737 C 833.54 110.888 834.198 109.305 835.514 107.988 C 836.831 106.679 838.435 106.025 840.328 106.025 C 842.178 106.025 843.761 106.679 845.077 107.988 C 846.393 109.305 847.051 110.888 847.051 112.737 L 847.051 144.658 C 847.051 147.462 847.578 150.091 848.631 152.545 C 849.684 155 851.128 157.145 852.964 158.981 C 854.792 160.809 856.934 162.25 859.388 163.303 C 861.843 164.363 864.472 164.893 867.275 164.893 C 870.029 164.893 872.633 164.363 875.088 163.303 C 877.549 162.25 879.705 160.799 881.555 158.949 C 883.405 157.092 884.86 154.947 885.92 152.513 C 886.973 150.08 887.5 147.462 887.5 144.658 L 887.5 112.737 C 887.5 110.888 888.158 109.305 889.474 107.988 C 890.783 106.679 892.387 106.025 894.287 106.025 C 896.137 106.025 897.72 106.679 899.036 107.988 C 900.345 109.305 901 110.888 901 112.737 L 901 171.67 C 901 173.527 900.345 175.11 899.036 176.419 C 897.72 177.736 896.116 178.394 894.223 178.394 Z " fill="rgb(51,51,51)"/><g><g><linearGradient id="_lgradient_0" x1="0.5000499780797898" y1="0.21815889029003754" x2="0.5000499780797893" y2="2.8160138713745266" gradientTransform="matrix(250.646,0,0,87.138,-1.535,0.308)" gradientUnits="userSpaceOnUse"><stop offset="0%" stop-opacity="1" style="stop-color:rgb(237,26,57)"/><stop offset="100%" stop-opacity="1" style="stop-color:rgb(254,188,17)"/></linearGradient><path d=" M 207.684 0.308 L 39.891 0.308 C 17.035 0.308 -1.535 18.879 -1.535 41.735 L -1.535 87.447 L 66.373 87.447 C 78.79 68.876 99.888 56.679 123.842 56.679 C 147.797 56.679 168.895 68.876 181.312 87.447 L 249.11 87.447 L 249.11 41.735 C 249.11 18.879 230.65 0.308 207.684 0.308 Z  M 222.079 35.911 C 222.079 40.636 218.233 44.372 213.618 44.372 L 191.311 44.372 C 186.586 44.372 182.85 40.526 182.85 35.911 L 182.85 34.812 C 182.85 30.087 186.696 26.351 191.311 26.351 L 213.618 26.351 C 218.343 26.351 222.079 30.197 222.079 34.812 L 222.079 35.911 Z " fill="url(#_lgradient_0)"/><linearGradient id="_lgradient_1" x1="0.5000499780797893" y1="-0.6642969984202207" x2="0.500049978079789" y2="0.9629526066350711" gradientTransform="matrix(250.646,0,0,139.113,-1.535,111.731)" gradientUnits="userSpaceOnUse"><stop offset="0%" stop-opacity="1" style="stop-color:rgb(237,26,57)"/><stop offset="100%" stop-opacity="1" style="stop-color:rgb(254,188,17)"/></linearGradient><path d=" M 191.421 111.841 C 192.96 119.313 193.289 127.225 192.19 135.246 C 187.905 166.453 162.192 191.177 130.875 194.254 C 89.559 198.43 54.725 166.014 54.725 125.576 C 54.725 120.851 55.165 116.236 56.154 111.731 L -1.535 111.731 L -1.535 209.418 C -1.535 232.274 17.035 250.844 39.891 250.844 L 207.684 250.844 C 230.54 250.844 249.11 232.274 249.11 209.418 L 249.11 111.731 L 191.421 111.731 L 191.421 111.841 Z  M 35.056 231.395 C 28.023 231.395 22.309 225.681 22.309 218.648 C 22.309 211.616 28.023 205.902 35.056 205.902 C 42.089 205.902 47.803 211.616 47.803 218.648 C 47.803 225.681 42.198 231.395 35.056 231.395 Z " fill="url(#_lgradient_1)"/><linearGradient id="_lgradient_2" x1="0.4996200787401577" y1="-0.45373917322834645" x2="0.4996200787401573" y2="1.5739163385826775" gradientTransform="matrix(111.642,0,0,111.642,68.021,69.975)" gradientUnits="userSpaceOnUse"><stop offset="0%" stop-opacity="1" style="stop-color:rgb(237,26,57)"/><stop offset="100%" stop-opacity="1" style="stop-color:rgb(254,188,17)"/></linearGradient><path d=" M 123.842 69.975 C 93.075 69.975 68.021 94.919 68.021 125.796 C 68.021 156.674 92.965 181.617 123.842 181.617 C 154.61 181.617 179.664 156.674 179.664 125.796 C 179.664 94.919 154.61 69.975 123.842 69.975 Z  M 123.842 168.211 C 100.327 168.211 81.317 149.201 81.317 125.686 C 81.317 102.171 100.327 83.161 123.842 83.161 C 147.358 83.161 166.368 102.171 166.368 125.686 C 166.258 149.201 147.248 168.211 123.842 168.211 Z " fill="url(#_lgradient_2)"/></g></g></g></svg>