<?xml version="1.0" encoding="utf-8"?>
<svg id="master-artboard" xmlns="http://www.w3.org/2000/svg" viewBox="0 0 192 192" width="192px" height="192px"><rect id="ee-background" x="0" y="0" width="192" height="192" style="fill: white; fill-opacity: 0; pointer-events: none;"/><g transform="matrix(0.8434932231903076, 0, 0, 0.8434932231903076, -647.9957885742188, -137.9171142578125)"><linearGradient id="SVGID_23_" gradientUnits="userSpaceOnUse" x1="878.9614" y1="197" x2="878.9614" y2="403.0099">
			<stop offset="0" style="stop-color:#ED1A39"/>
			<stop offset="1" style="stop-color:#FEBC11"/>
		</linearGradient><linearGradient id="SVGID_24_" gradientUnits="userSpaceOnUse" x1="878.9614" y1="197" x2="878.9614" y2="403.0098">
			<stop offset="0" style="stop-color:#ED1A39"/>
			<stop offset="1" style="stop-color:#FEBC11"/>
		</linearGradient><linearGradient id="SVGID_25_" gradientUnits="userSpaceOnUse" x1="878.9614" y1="197.0001" x2="878.9614" y2="403.0099">
			<stop offset="0" style="stop-color:#ED1A39"/>
			<stop offset="1" style="stop-color:#FEBC11"/>
		</linearGradient><g transform="matrix(1, 0, 0, 1, 2.9268293380737305, -16.09756088256836)"><path class="st23" d="M955.3,179.7H802.6c-20.8,0-37.7,16.9-37.7,37.7V259h61.8c11.3-16.9,30.5-28,52.3-28c21.8,0,41,11.1,52.3,28&#10;&#9;&#9;&#9;H993v-41.6C993,196.6,976.2,179.7,955.3,179.7z M968.4,212.1c0,4.3-3.5,7.7-7.7,7.7h-20.3c-4.3,0-7.7-3.5-7.7-7.7v-1&#10;&#9;&#9;&#9;c0-4.3,3.5-7.7,7.7-7.7h20.3c4.3,0,7.7,3.5,7.7,7.7V212.1z" style="fill: url('#SVGID_23_');" transform="matrix(1, 0, 0, 1, 0, 0)"/><path class="st24" d="M940.5,281.2c1.4,6.8,1.7,14,0.7,21.3c-3.9,28.4-27.3,50.9-55.8,53.7c-37.6,3.8-69.3-25.7-69.3-62.5&#10;&#9;&#9;&#9;c0-4.3,0.4-8.5,1.3-12.6h-52.5v88.9c0,20.8,16.9,37.7,37.7,37.7h152.7c20.8,0,37.7-16.9,37.7-37.7v-88.9H940.5z M798.2,390&#10;&#9;&#9;&#9;c-6.4,0-11.6-5.2-11.6-11.6c0-6.4,5.2-11.6,11.6-11.6c6.4,0,11.6,5.2,11.6,11.6C809.8,384.8,804.7,390,798.2,390z" style="fill: url('#SVGID_24_');" transform="matrix(1, 0, 0, 1, 0, 0)"/><path class="st25" d="M879,243.1c-28,0-50.8,22.7-50.8,50.8s22.7,50.8,50.8,50.8c28,0,50.8-22.7,50.8-50.8S907,243.1,879,243.1z&#10;&#9;&#9;&#9; M879,332.5c-21.4,0-38.7-17.3-38.7-38.7c0-21.4,17.3-38.7,38.7-38.7c21.4,0,38.7,17.3,38.7,38.7&#10;&#9;&#9;&#9;C917.6,315.2,900.3,332.5,879,332.5z" style="fill: url('#SVGID_25_');" transform="matrix(1, 0, 0, 1, 0, 0)"/></g></g></svg>